<svg width="1352" height="500" viewBox="0 0 1352 500" xmlns="http://www.w3.org/2000/svg"><g fill="none" fill-rule="evenodd"><path d="M250 500c138.07 0 250-111.93 250-250S388.07 0 250 0 0 111.93 0 250s111.93 250 250 250z" fill="#FFF"/><path d="M125.79 326V166.918h28.858V196.8c11.426-22.265 28.028-33.398 49.805-33.398 2.93 0 6.006.244 9.23.733v26.953c-4.982-1.66-9.376-2.49-13.185-2.49-18.262 0-33.545 10.84-45.85 32.52V326H125.79zm239.356-5.127c-19.336 5.86-35.888 8.79-49.658 8.79-23.437 0-42.553-7.79-57.348-23.365-14.795-15.576-22.193-35.767-22.193-60.57 0-24.123 6.52-43.898 19.556-59.328 13.037-15.43 29.712-23.144 50.024-23.144 19.24 0 34.107 6.836 44.605 20.508 10.498 13.672 15.747 33.105 15.747 58.3L365.73 251h-100.34c4.198 37.793 22.704 56.69 55.516 56.69 12.012 0 26.758-3.223 44.238-9.67v22.853zM266.71 229.32h70.165c0-29.59-11.035-44.384-33.105-44.384-22.17 0-34.522 14.794-37.06 44.384zm183.544 18.457c0 3.125-1.782 6.446-5.347 9.96-3.564 3.517-6.86 5.275-9.887 5.275-3.125 0-6.446-1.758-9.96-5.274-3.517-3.515-5.275-6.836-5.275-9.96 0-3.028 1.758-6.324 5.274-9.888 3.514-3.565 6.835-5.347 9.96-5.347 3.027 0 6.323 1.782 9.887 5.347 3.565 3.564 5.347 6.86 5.347 9.887zm0 63.428c0 3.027-1.782 6.323-5.347 9.888-3.564 3.564-6.86 5.346-9.887 5.346-3.125 0-6.446-1.783-9.96-5.347-3.517-3.565-5.275-6.86-5.275-9.888 0-3.125 1.758-6.445 5.274-9.96 3.514-3.517 6.835-5.274 9.96-5.274 3.027 0 6.323 1.758 9.887 5.274 3.565 3.516 5.347 6.836 5.347 9.96z" fill="#0275D8"/><path d="M603.7 383.86V166.92h28.858V196.8c11.816-22.265 29.54-33.398 53.173-33.398 19.142 0 34.205 6.983 45.192 20.948 10.986 13.965 16.48 33.056 16.48 57.275 0 26.367-6.226 47.632-18.677 63.794-12.452 16.16-28.833 24.242-49.146 24.242-18.85 0-34.522-7.226-47.022-21.68v75.88H603.7zm28.858-95.8c14.843 13.282 29.003 19.922 42.48 19.922 27.735 0 41.602-21.142 41.602-63.427 0-37.305-12.305-55.957-36.914-55.957-16.114 0-31.836 8.74-47.168 26.22v73.243zm241.992 17.725c-17.285 15.918-33.936 23.877-49.95 23.877-13.185 0-24.122-4.126-32.814-12.378-8.69-8.252-13.037-18.677-13.037-31.274 0-17.383 7.3-30.737 21.898-40.064 14.6-9.326 35.523-13.99 62.77-13.99h6.884V212.77c0-18.458-9.473-27.686-28.418-27.686-15.235 0-31.69 4.687-49.365 14.063v-23.877c19.432-7.91 37.645-11.866 54.637-11.866 17.774 0 30.884 4.004 39.33 12.012 8.45 8.008 12.672 20.46 12.672 37.354v72.07c0 16.504 5.077 24.756 15.234 24.756 1.27 0 3.125-.196 5.566-.586l2.05 15.967c-6.542 3.125-13.77 4.687-21.68 4.687-13.476 0-22.07-7.96-25.78-23.877zm-4.248-15.674v-41.16l-9.668-.294c-15.82 0-28.613 3.003-38.38 9.01-9.765 6.005-14.648 13.89-14.648 23.656 0 6.934 2.442 12.793 7.325 17.578 4.884 4.786 10.84 7.178 17.872 7.178 12.012 0 24.51-5.322 37.5-15.967zm87.89 35.89V166.918h28.858V196.8c11.426-22.265 28.027-33.398 49.804-33.398 2.93 0 6.006.244 9.23.733v26.953c-4.98-1.66-9.376-2.49-13.185-2.49-18.262 0-33.545 10.84-45.85 32.52V326h-28.858zm164.942 3.662c-13.184 0-29.2-3.076-48.047-9.228V293.92c18.848 9.375 35.254 14.062 49.22 14.062 8.3 0 15.184-2.246 20.653-6.738 5.47-4.492 8.203-10.107 8.203-16.846 0-9.863-7.666-18.017-22.998-24.462l-16.846-7.178c-24.903-10.352-37.354-25.244-37.354-44.678 0-13.867 4.907-24.78 14.72-32.74 9.816-7.958 23.268-11.938 40.358-11.938 8.887 0 19.873 1.22 32.96 3.662l6.005 1.172v24.024c-16.115-4.785-28.907-7.178-38.38-7.178-18.555 0-27.832 6.738-27.832 20.215 0 8.69 7.03 16.015 21.094 21.973l13.916 5.86c15.722 6.64 26.855 13.646 33.398 21.02 6.543 7.372 9.815 16.577 9.815 27.612 0 13.965-5.517 25.44-16.552 34.424-11.035 8.984-25.147 13.476-42.334 13.476zm227.344-8.79c-19.337 5.86-35.89 8.79-49.66 8.79-23.436 0-42.552-7.788-57.347-23.364-14.794-15.576-22.192-35.767-22.192-60.57 0-24.123 6.52-43.898 19.556-59.328 13.037-15.43 29.712-23.144 50.024-23.144 19.24 0 34.107 6.836 44.605 20.508 10.498 13.672 15.747 33.105 15.747 58.3l-.147 8.936h-100.34c4.198 37.793 22.704 56.69 55.516 56.69 12.01 0 26.757-3.223 44.238-9.67v22.853zm-98.438-91.552h70.166c0-29.59-11.035-44.384-33.105-44.384-22.167 0-34.52 14.794-37.06 44.384z" fill="#FFF"/></g></svg>
